<svg xmlns="http://www.w3.org/2000/svg" viewBox="0 0 2000 2000" fill="#6366F1" role="img" aria-label="Sandbox">
  <path d="M1585.71,1000.43c-4.32,247.66-156.43,474.37-392.53,557.9-308.29,110.59-647.86-49.68-758.45-357.96-60.01-167.27-41.83-352.64,49.52-505.08,130.94-214.95,382.32-325.06,629.1-275.56,275.56,57.02,467.58,302.84,472.36,580.7,0,29.74,46.23,29.74,46.23,0-2.31-266.61-167.85-504.52-417.03-599.35-331.1-122.57-698.87,46.48-821.44,377.58-67.22,181.59-48.52,383.86,50.87,550.04,137.67,226.39,399.7,345.67,660.84,300.83,304.99-53.63,521.52-323.64,526.92-629.25.31-29.59-45.93-29.59-46.39.15Z"></path>
  <path d="M273.12,1023.54h1453.77c12.77,0,23.12-10.35,23.12-23.12s-10.35-23.12-23.12-23.12H273.12c-12.77,0-23.12,10.35-23.12,23.12s10.35,23.12,23.12,23.12h0Z"></path>
</svg>